<svg width="31" height="31" viewBox="0 0 31 31" fill="none" xmlns="http://www.w3.org/2000/svg">
<path d="M15.6701 30.3921C7.38878 30.383 0.677704 23.6726 0.66861 15.3921V15.0921C0.833523 6.84891 7.62118 0.284051 15.8661 0.393437C24.1111 0.502823 30.7222 7.24544 30.6683 15.4901C30.6144 23.7348 23.9158 30.3904 15.6701 30.3921ZM15.6701 3.39211C9.04203 3.39211 3.66891 8.76469 3.66891 15.3921C3.66891 22.0195 9.04203 27.3921 15.6701 27.3921C22.2982 27.3921 27.6713 22.0195 27.6713 15.3921C27.6639 8.76778 22.2951 3.39955 15.6701 3.39211ZM13.4949 22.8921L11.3737 20.7696L16.6767 15.4671L11.3737 10.1646L13.4949 8.04211L20.9206 15.4671L13.4964 22.8921H13.4949Z" fill="white"/>
</svg>
