<svg width="30" height="31" viewBox="0 0 30 31" fill="none" xmlns="http://www.w3.org/2000/svg">
<path d="M15 30.3921C6.71573 30.3921 0 23.6764 0 15.3921C0 7.10782 6.71573 0.39209 15 0.39209C23.2843 0.39209 30 7.10782 30 15.3921C29.9909 23.6726 23.2805 30.383 15 30.3921ZM15 3.39209C8.4081 3.39376 3.05169 8.71239 3.00336 15.3041C2.95503 21.8958 8.23288 27.2924 14.824 27.3908C21.4152 27.4891 26.8517 22.2523 27 15.6621V18.3366V15.3921C26.9926 8.76776 21.6243 3.39953 15 3.39209ZM17.175 22.7421L9.75 15.3171L17.175 7.89209L19.296 10.0131L13.992 15.3171L19.2945 20.6211L17.1765 22.7421H17.175Z" fill="white"/>
</svg>
